<?xml version="1.0" encoding="UTF-8"?>
<!DOCTYPE svg PUBLIC "-//W3C//DTD SVG 1.1//EN" "http://www.w3.org/Graphics/SVG/1.1/DTD/svg11.dtd">
<!-- Creator: CorelDRAW -->
<svg xmlns="http://www.w3.org/2000/svg" xml:space="preserve" width="269.698mm" height="42.3718mm" style="shape-rendering:geometricPrecision; text-rendering:geometricPrecision; image-rendering:optimizeQuality; fill-rule:evenodd; clip-rule:evenodd"
viewBox="0 0 277.157 43.5436"
 xmlns:xlink="http://www.w3.org/1999/xlink">
 <defs>
  <style type="text/css">
   <![CDATA[
    .str0 {stroke:#1F1A17;stroke-width:0.0783073}
    .str1 {stroke:white;stroke-width:0.0783073}
    .fil3 {fill:none;fill-rule:nonzero}
    .fil4 {fill:#1F1A17}
    .fil0 {fill:white}
    .fil1 {fill:#1F1A17;fill-rule:nonzero}
    .fil2 {fill:#DA251D;fill-rule:nonzero}
   ]]>
  </style>
 </defs>
 <g id="Capa_x0020_1">
  <metadata id="CorelCorpID_0Corel-Layer"/>
  <g id="_85335264">
   <g id="_103746648">
    <path id="_104748568" class="fil0 str0" d="M236.499 15.2476c-0.023225,-0.848637 -0.0522048,-1.69717 -0.0842676,-2.54622l-0.101635 -2.69307 10.33 0 0.0346319 0.302541c1.08674,-0.451654 2.27368,-0.692639 3.53677,-0.692639 1.99252,0 3.84404,0.598814 5.27104,1.765 1.56286,-1.13186 3.44511,-1.765 5.47431,-1.765 1.69039,0 3.32364,0.414042 4.73153,1.37058 3.08584,2.09672 3.96335,5.93799 3.96335,9.45216l0 14.7236 -33.1 0 0 -5.38563c-0.560894,1.00494 -1.27542,1.93415 -2.1665,2.75555 -2.19569,2.02397 -5.11145,3.02613 -8.07592,3.02613 -3.72679,0 -6.69085,-1.37757 -8.73136,-3.65249l0.223104 1.84084 -1.72338 0.78965c-1.58814,0.727785 -3.92502,0.986548 -5.6558,0.986548 -4.32817,0 -7.71193,-1.65072 -9.83414,-4.45283 -0.736931,2.63141 -2.95225,4.48828 -5.94704,4.48828 -1.87239,0 -3.45169,-0.748132 -4.54943,-1.95861l0.321759 1.56255 -10.946 0 -0.0322683 -0.174187c-1.07102,0.384754 -2.22744,0.570245 -3.41222,0.570245 -2.73007,0 -5.05791,-1.16351 -6.59857,-3.02747 -0.015312,0.154559 -0.0323711,0.30881 -0.0511772,0.462958 -0.887585,7.24589 -5.66299,10.5083 -12.7841,10.5083 -2.46257,0 -5.22552,-0.415172 -7.45327,-1.50531l-1.86601 -0.913276 2.14554 -8.98437c-0.578261,-0.618237 -1.08099,-1.31458 -1.50829,-2.06785l0 5.13097 -21.1185 0 -0.192069 -4.82042 -1.18643 4.32396 -8.72016 0 -0.789238 -3.14555 -0.172235 3.64201 -10.8579 0 0.0690584 -1.00761 -0.183539 0.0741966c-2.32918,0.940509 -5.06747,1.29402 -7.56785,1.29402 -4.83974,0 -8.48822,-1.93733 -10.5394,-5.26755 0.0216835,0.732923 0.0491219,1.46533 0.0815957,2.19651l0.120441 2.71044 -10.5009 0 -0.0264107 -0.240985c-1.03187,0.415481 -2.14811,0.637043 -3.28582,0.637043 -1.46533,0 -2.88843,-0.33296 -4.18975,-1.00988 -1.81093,-0.941948 -3.15428,-2.39043 -4.10229,-4.09253l0 4.70635 -22.7802 0 0 -5.38563c-0.560894,1.00494 -1.27542,1.93415 -2.1665,2.75555 -2.19569,2.02397 -5.11145,3.02613 -8.07592,3.02613 -4.82186,0 -8.36685,-2.30606 -10.2867,-5.87798 -0.0673114,0.121263 -0.137192,0.241396 -0.209744,0.360398 -2.43749,3.99593 -7.02309,5.48212 -11.4907,5.48212 -2.45476,0 -5.86205,-0.544554 -8.03379,-1.75102l-1.66059 -0.922525 2.12139 -10.465 3.04658 1.56049c1.35445,0.693769 3.24749,1.13309 4.77469,1.13309 0.264107,0 1.00094,-0.0403868 1.30512,-0.204092 0,-0.000411062 0,-0.000719358 -0.000102765,-0.00113042 -0.313846,-0.443022 -2.09724,-1.26196 -2.54725,-1.46441l-0.0176757 -0.0080157c-4.28295,-1.96601 -8.07335,-5.24576 -8.07335,-10.3024 0,-1.7652 0.40058,-3.49629 1.23832,-5.05431 2.23361,-4.15429 6.73956,-5.83934 11.2512,-5.83934 2.38036,0 4.93747,0.418461 7.09328,1.46728l1.85214 0.90115 -2.36114 10.3748 -2.95749 -1.4789c-1.15262,-0.576308 -2.37162,-0.860763 -3.66225,-0.860763 -0.13082,0 -0.385884,0.0123319 -0.623992,0.0504578 0.760156,0.478168 2.14009,1.10103 2.58023,1.30224 2.20329,0.986548 4.09428,2.27379 5.45047,3.93324 1.54981,-4.90736 5.56999,-8.27775 11.4242,-8.27775 4.63708,0 8.05588,2.22991 9.9739,5.62939 -0.023225,-0.848637 -0.0522048,-1.69717 -0.0842676,-2.54622l-0.101635 -2.69307 10.337 0 0.0424421 0.334913c1.13566,-0.473749 2.37018,-0.72501 3.62834,-0.72501 4.65363,0 7.3392,2.72174 8.43344,6.45459 1.25312,-2.93693 3.47666,-5.32993 6.8786,-6.17672 0.744947,-0.185389 1.51014,-0.277878 2.2778,-0.277878 0.615051,0 1.2339,0.056932 1.83765,0.175215l0 -8.40261 11.432 0 0 14.1537c1.94884,-3.51273 5.40125,-5.92628 10.0651,-5.92628 1.99632,0 3.95174,0.455662 5.65939,1.51322 1.85039,1.14604 3.09427,2.77384 3.88525,4.63112l0.905158 -13.2015 12.0782 0 2.37316 9.56931 2.53646 -9.56931 11.9667 0 0.423907 7.4472 0.626047 0c-0.452065,-0.826131 -0.70641,-1.7875 -0.70641,-2.83057 0,-3.29548 2.49381,-5.78693 5.78693,-5.78693 3.31254,0 5.78693,2.47439 5.78693,5.78693 0,1.04369 -0.254242,2.00485 -0.705998,2.83057l0.63509 0 0 5.09244c1.19619,-2.18428 3.01144,-3.96973 5.53258,-4.89503 1.06691,-0.391639 2.19045,-0.58751 3.32672,-0.58751 0.945442,0 1.84731,0.140583 2.68423,0.417228l0.00359679 -0.0271301 10.3833 0 -0.0836511 1.84053 0.362967 -0.201729c2.51005,-1.39453 5.72085,-2.0289 8.56581,-2.0289 7.20581,0 10.8227,4.33547 10.8227,11.2128l0 4.58015c1.0924,-1.67148 2.93313,-2.77795 5.1357,-2.77795 1.3191,0 2.49134,0.366256 3.4523,1.00299 -0.0125374,-0.269759 -0.0188061,-0.54291 -0.0188061,-0.819246 0,-7.78787 5.38285,-13.1633 13.1988,-13.1633 1.55875,0 3.34347,0.261846 4.81548,0.791808l2.07987 0.748749 -0.372936 1.98419c2.0734,-2.22025 5.03551,-3.56021 8.72674,-3.56021 4.63708,0 8.05588,2.22991 9.9739,5.62939zm-21.9566 5.16427l-1.03762 -0.346011c-0.657493,-0.219199 -1.21006,-0.327719 -1.90969,-0.327719 -1.59471,0 -2.03044,1.4159 -2.01523,2.8021l0.000205531 0.028466c0,1.41539 0.42699,2.83067 2.05048,2.83067 0.608063,0 1.25179,-0.0712164 1.81895,-0.303261l1.0515 -0.430176c-0.0734773,-0.635707 -0.110781,-1.28847 -0.110781,-1.95532 0,-0.786875 0.0512799,-1.55474 0.152196,-2.29876zm-44.9817 -3.37379c-0.011818,0.577131 -0.0186005,1.15529 -0.0186005,1.73612l0 1.97793c0.256194,-0.298225 0.531914,-0.578261 0.825104,-0.840724l-0.806503 -2.87332zm-137.816 2.60531c-0.333166,0.780195 -0.437678,2.32137 -0.437678,2.92532 0,0.551645 0.0890976,2.16804 0.430484,2.9654 0.342928,-0.817704 0.443227,-2.39073 0.443227,-2.9654 0,-0.571273 -0.102046,-2.11419 -0.436034,-2.92532zm43.2517 0.155176c-0.496357,0.430073 -0.637043,2.33123 -0.637043,2.87661 0,0.468508 0.124552,2.36658 0.622142,2.65073 0.0127429,0.00359679 0.0322683,0.00256914 0.0452168,0.00256914 0.000719358,0 0.00143872,0 0.00226084,0 0.107287,-0.20029 0.133184,-0.703635 0.133184,-0.880186l0 -3.68815c0,-0.172749 -0.0335015,-0.751935 -0.165761,-0.961576zm83.072 0.148496c-0.392872,0.645572 -0.512286,2.15489 -0.512286,2.6571 0,0.456998 0.105437,1.9325 0.486697,2.42485 0.0536436,-0.240163 0.0678252,-0.573842 0.0678252,-0.722544l0 -3.86552c0,-0.103279 -0.0101738,-0.310146 -0.0422366,-0.493891zm68.263 -0.303672c-0.333166,0.780195 -0.437678,2.32137 -0.437678,2.92532 0,0.551645 0.0890976,2.16804 0.430484,2.9654 0.342928,-0.817704 0.443227,-2.39073 0.443227,-2.9654 0,-0.571273 -0.102046,-2.11419 -0.436034,-2.92532z"/>
   </g>
   <path id="_131113720" class="fil1" d="M19.1003 6.00746c-1.31211,-0.638379 -3.3335,-1.20575 -5.95783,-1.20575 -6.34792,0 -9.89425,3.65269 -9.89425,8.29841 0,3.2626 2.23422,5.95783 6.56075,7.94377 2.83705,1.27665 4.07825,2.19867 4.07825,3.86542 0,1.6313 -1.27665,2.76614 -3.90098,2.76614 -2.19877,0 -4.5038,-0.67373 -5.95783,-1.41847l-1.06393 5.24854c1.27676,0.709287 4.00734,1.42443 6.77347,1.42443 6.63166,0 10.4263,-3.55229 10.4263,-8.55255 0,-3.40452 -1.80867,-6.09964 -6.17065,-8.05013 -3.3335,-1.52494 -4.46834,-2.26968 -4.46834,-3.79461 0,-1.34756 1.17029,-2.51786 3.58179,-2.51786 2.19867,0 3.82996,0.638276 4.82299,1.13484l1.17029 -5.14218z"/>
   <path id="_1" class="fil1" d="M31.9378 12.2135c-5.49682,0 -9.53961,3.79461 -9.53961,10.4972 0,6.41883 3.79451,10.2548 9.32678,10.2548 4.36198,0 9.36234,-2.73654 9.36234,-10.503 0,-5.99328 -3.43997,-10.2489 -9.14951,-10.2489zm2.83705 10.3553c0,3.19169 -0.957568,5.85146 -2.97896,5.85146 -2.12776,0 -3.08522,-2.51786 -3.08522,-5.85146 0,-2.76614 0.744638,-5.81591 3.08522,-5.81591 2.12786,0 2.97896,2.8725 2.97896,5.81591z"/>
   <path id="_12" class="fil1" d="M62.1525 20.4054c0,-5.17763 -2.23412,-8.19205 -6.41883,-8.19205 -2.76614,0 -4.64561,1.56039 -5.53227,2.90806l-0.106362 0 -0.319189 -2.51796 -5.3549 0c0.0709081,1.87958 0.141816,4.00734 0.141816,6.38338l0 13.5824 6.24156 0 0 -11.7028c0,-2.55331 1.38302,-3.51088 2.69523,-3.51088 1.77311,0 2.41149,1.52494 2.41149,3.61724l0 11.5965 6.24146 0 0 -12.1638z"/>
   <path id="_123" class="fil1" d="M83.998 3.98607l-6.24156 0 0 10.2844 -0.106362 0c-0.673833,-1.20575 -2.19877,-2.05695 -4.32653,-2.05695 -4.14926,0 -7.83741,3.68825 -7.83741,10.4617 0,5.88681 2.97896,10.2902 7.55367,10.2902 2.12776,0 4.18471,-1.10524 5.24854,-2.98482l0.106465 0 0.283633 2.58876 5.46137 0c-0.0709081,-1.59584 -0.141816,-3.90087 -0.141816,-6.09964l0 -22.4836zm-6.24156 20.4621c0,2.73068 -1.56039,3.47542 -2.73068,3.47542 -1.91503,0 -3.2626,-1.80867 -3.2626,-5.24854 0,-3.01442 1.02837,-5.49682 3.29805,-5.49682 1.06393,0 2.69523,0.815649 2.69523,3.58179l0 3.68815z"/>
   <path id="_1234" class="fil1" d="M102.971 27.4981c-1.41847,0.461006 -2.97886,0.780195 -4.78753,0.780195 -2.58876,0 -4.71662,-1.09938 -4.85844,-3.47542l11.2773 0c0.141919,-0.673833 0.177373,-1.66675 0.177373,-2.62432 0,-6.77347 -3.36906,-9.96516 -8.12114,-9.96516 -5.95783,0 -9.29133,5.00036 -9.29133,10.7099 0,6.24156 3.54633,10.0066 9.82335,10.0066 2.37604,0 4.75208,-0.360604 6.5961,-1.10524l-0.815649 -4.32653zm-9.68143 -6.9863c0.106362,-1.66675 0.922011,-4.00734 3.04987,-4.00734 2.16321,0 2.73058,2.23422 2.73058,4.00734l-5.78045 0z"/>
   <path id="_12345" class="fil1" d="M194.643 32.9653c2.16321,0 3.61724,-1.56625 3.61724,-3.87138 0,-2.34059 -1.52494,-3.86552 -3.61724,-3.86552 -2.0214,0 -3.61724,1.6313 -3.61724,3.86552 0,2.23412 1.45403,3.87138 3.61724,3.87138z"/>
   <path id="_123456" class="fil1" d="M214.432 27.4981c-0.780195,0.319189 -1.70231,0.49646 -2.80159,0.49646 -2.65977,0 -4.64572,-1.95049 -4.64572,-5.42591 -0.0354541,-3.22714 1.77311,-5.42581 4.61026,-5.42581 1.2412,0 2.0923,0.248178 2.73058,0.461006l0.88666 -4.71662c-0.88666,-0.319189 -2.37604,-0.638379 -3.93643,-0.638379 -6.70257,0 -10.6035,4.53935 -10.6035,10.5681 0,6.38338 3.79461,10.1129 9.75244,10.1129 1.95038,0 3.7236,-0.360604 4.57471,-0.750599l-0.567368 -4.68117z"/>
   <path id="_1234567" class="fil1" d="M226.525 12.2135c-5.49682,0 -9.53961,3.79461 -9.53961,10.4972 0,6.41883 3.79451,10.2548 9.32678,10.2548 4.36198,0 9.36234,-2.73654 9.36234,-10.503 0,-5.99328 -3.43997,-10.2489 -9.14951,-10.2489zm2.83705 10.3553c0,3.19169 -0.957568,5.85146 -2.97896,5.85146 -2.12776,0 -3.08522,-2.51786 -3.08522,-5.85146 0,-2.76614 0.744638,-5.81591 3.08522,-5.81591 2.12786,0 2.97896,2.8725 2.97896,5.81591z"/>
   <path id="_12345678" class="fil1" d="M267.058 20.441c0,-5.31945 -2.19867,-8.2275 -6.09964,-8.2275 -3.08533,0 -4.8939,1.91503 -5.67409,3.04987l-0.0709081 0c-0.780195,-1.87958 -2.55341,-3.04987 -5.00036,-3.04987 -2.83705,0 -4.57471,1.6313 -5.49682,2.8726l-0.106362 0 -0.283735 -2.4825 -5.31945 0c0.0709081,1.87958 0.141816,4.00734 0.141816,6.38338l0 13.5824 6.1352 0 0 -11.9866c0,-2.55331 1.59584,-3.29805 2.51786,-3.29805 1.73766,0 2.23422,1.70221 2.23422,3.65269l0 11.6319 6.1351 0 0 -12.022c0,-2.0214 1.02848,-3.2626 2.4824,-3.2626 1.70231,0 2.26968,1.6313 2.26968,4.14926l0 11.1354 6.1351 0 0 -12.1284z"/>
   <path id="_123456789" class="fil2" d="M133.611 5.15636l-7.51811 0 -2.34059 8.83032c-0.815649,3.19169 -1.59584,6.70257 -2.16331,9.8588l-0.141816 0c-0.531914,-3.22725 -1.31211,-6.56075 -2.0923,-9.82335l-2.19877 -8.86578 -7.62458 0 -1.87958 27.413 5.60318 0 0.461006 -9.75234c0.141919,-2.94341 0.319189,-6.80893 0.425654,-10.2134l0.106362 0c0.567368,3.36906 1.34756,7.09266 2.0214,9.71698l2.44695 9.75234 4.71662 0 2.69523 -9.82324c0.744741,-2.62432 1.70221,-6.34792 2.41149,-9.64608l0.106362 0c-0.0354541,3.61724 0.106362,7.27004 0.248281,10.178l0.390098 9.78779 5.88681 0 -1.56039 -27.413z"/>
   <path id="_12345678910" class="fil2" d="M145.385 7.17775c0,-1.87958 -1.31211,-3.19169 -3.19169,-3.19169 -1.84402,0 -3.19169,1.31211 -3.19169,3.19169 0,1.80857 1.31211,3.15623 3.19169,3.15623 1.80867,0 3.19169,-1.27676 3.19169,-3.15623zm-0.0709081 5.42581l-6.24156 0 0 19.9658 6.24156 0 0 -19.9658z"/>
   <path id="_1234567891011" class="fil2" d="M161.733 12.6035l-0.283735 2.16331 -0.0709081 0c-0.922011,-1.59584 -2.4824,-2.55341 -4.61026,-2.55341 -4.46834,0 -8.08558,4.07835 -8.08558,10.4972 0,5.24854 2.73068,9.68143 7.51822,9.68143 1.84413,0 3.51088,-0.780195 4.5038,-2.19867l0.0709081 0 0 1.09928c0,3.16219 -1.66675,4.79349 -4.39744,4.79349 -1.98594,0 -3.79451,-0.567471 -4.9648,-1.17029l-1.13484 4.75208c1.66675,0.815649 3.97188,1.2412 6.31247,1.2412 9.18497,0 10.3553,-5.92237 10.3553,-10.9286l0 -11.2064c0,-2.73068 0.106362,-4.61026 0.17727,-6.17065l-5.39035 0zm-1.02848 11.703c0,2.51786 -1.2412,3.40441 -2.58876,3.40441 -1.95049,0 -3.15623,-1.98594 -3.15623,-5.10672 0,-3.2626 1.27665,-5.46126 3.22714,-5.46126 1.31211,0 2.51786,1.06383 2.51786,3.29805l0 3.86552z"/>
   <path id="_123456789101112" class="fil2" d="M186.913 20.8311c0,-4.43289 -1.6313,-8.6176 -8.2275,-8.6176 -3.43987,0 -6.02873,0.993022 -7.30539,1.70231l1.13484 4.04279c1.27665,-0.780195 3.04977,-1.34767 4.92935,-1.34767 2.51786,0 3.19169,1.09938 3.19169,2.62432 -5.88692,0.0354541 -10.6035,2.30513 -10.6035,7.58912 0,3.36906 2.37604,6.14106 5.99338,6.14106 2.05685,0 3.93633,-0.715145 5.14207,-2.31099l0.106465 0 0.354643 1.91493 5.60318 0c-0.248281,-1.20575 -0.319189,-2.94341 -0.319189,-4.71652l0 -7.02176zm-6.06419 4.8939c0,1.87958 -1.41857,2.80159 -2.69523,2.80159 -1.09938,0 -2.0923,-0.709184 -2.0923,-2.34059 0,-2.30503 2.19867,-3.04977 4.78753,-3.04977l0 2.58876z"/>
   <path id="_12345678910111213" class="fil3 str1" d="M19.1003 6.00746c-1.31211,-0.638379 -3.3335,-1.20575 -5.95783,-1.20575 -6.34792,0 -9.89425,3.65269 -9.89425,8.29841 0,3.2626 2.23422,5.95783 6.56075,7.94377 2.83705,1.27665 4.07825,2.19867 4.07825,3.86542 0,1.6313 -1.27665,2.76614 -3.90098,2.76614 -2.19877,0 -4.5038,-0.67373 -5.95783,-1.41847l-1.06393 5.24854c1.27676,0.709287 4.00734,1.42443 6.77347,1.42443 6.63166,0 10.4263,-3.55229 10.4263,-8.55255 0,-3.40452 -1.80867,-6.09964 -6.17065,-8.05013 -3.3335,-1.52494 -4.46834,-2.26968 -4.46834,-3.79461 0,-1.34756 1.17029,-2.51786 3.58179,-2.51786 2.19867,0 3.82996,0.638276 4.82299,1.13484l1.17029 -5.14218z"/>
   <path id="_1234567891011121314" class="fil3 str1" d="M31.9378 12.2135c-5.49682,0 -9.53961,3.79461 -9.53961,10.4972 0,6.41883 3.79451,10.2548 9.32678,10.2548 4.36198,0 9.36234,-2.73654 9.36234,-10.503 0,-5.99328 -3.43997,-10.2489 -9.14951,-10.2489zm2.83705 10.3553c0,3.19169 -0.957568,5.85146 -2.97896,5.85146 -2.12776,0 -3.08522,-2.51786 -3.08522,-5.85146 0,-2.76614 0.744638,-5.81591 3.08522,-5.81591 2.12786,0 2.97896,2.8725 2.97896,5.81591z"/>
   <path id="_123456789101112131415" class="fil3 str1" d="M62.1525 20.4054c0,-5.17763 -2.23412,-8.19205 -6.41883,-8.19205 -2.76614,0 -4.64561,1.56039 -5.53227,2.90806l-0.106362 0 -0.319189 -2.51796 -5.3549 0c0.0709081,1.87958 0.141816,4.00734 0.141816,6.38338l0 13.5824 6.24156 0 0 -11.7028c0,-2.55331 1.38302,-3.51088 2.69523,-3.51088 1.77311,0 2.41149,1.52494 2.41149,3.61724l0 11.5965 6.24146 0 0 -12.1638z"/>
   <path id="_12345678910111213141516" class="fil3 str1" d="M83.998 3.98607l-6.24156 0 0 10.2844 -0.106362 0c-0.673833,-1.20575 -2.19877,-2.05695 -4.32653,-2.05695 -4.14926,0 -7.83741,3.68825 -7.83741,10.4617 0,5.88681 2.97896,10.2902 7.55367,10.2902 2.12776,0 4.18471,-1.10524 5.24854,-2.98482l0.106465 0 0.283633 2.58876 5.46137 0c-0.0709081,-1.59584 -0.141816,-3.90087 -0.141816,-6.09964l0 -22.4836zm-6.24156 20.4621c0,2.73068 -1.56039,3.47542 -2.73068,3.47542 -1.91503,0 -3.2626,-1.80867 -3.2626,-5.24854 0,-3.01442 1.02837,-5.49682 3.29805,-5.49682 1.06393,0 2.69523,0.815649 2.69523,3.58179l0 3.68815z"/>
   <path id="_1234567891011121314151617" class="fil3 str1" d="M102.971 27.4981c-1.41847,0.461006 -2.97886,0.780195 -4.78753,0.780195 -2.58876,0 -4.71662,-1.09938 -4.85844,-3.47542l11.2773 0c0.141919,-0.673833 0.177373,-1.66675 0.177373,-2.62432 0,-6.77347 -3.36906,-9.96516 -8.12114,-9.96516 -5.95783,0 -9.29133,5.00036 -9.29133,10.7099 0,6.24156 3.54633,10.0066 9.82335,10.0066 2.37604,0 4.75208,-0.360604 6.5961,-1.10524l-0.815649 -4.32653zm-9.68143 -6.9863c0.106362,-1.66675 0.922011,-4.00734 3.04987,-4.00734 2.16321,0 2.73058,2.23422 2.73058,4.00734l-5.78045 0z"/>
   <path id="_123456789101112131415161718" class="fil3 str1" d="M133.611 5.15636l-7.51811 0 -2.34059 8.83032c-0.815649,3.19169 -1.59584,6.70257 -2.16331,9.8588l-0.141816 0c-0.531914,-3.22725 -1.31211,-6.56075 -2.0923,-9.82335l-2.19877 -8.86578 -7.62458 0 -1.87958 27.413 5.60318 0 0.461006 -9.75234c0.141919,-2.94341 0.319189,-6.80893 0.425654,-10.2134l0.106362 0c0.567368,3.36906 1.34756,7.09266 2.0214,9.71698l2.44695 9.75234 4.71662 0 2.69523 -9.82324c0.744741,-2.62432 1.70221,-6.34792 2.41149,-9.64608l0.106362 0c-0.0354541,3.61724 0.106362,7.27004 0.248281,10.178l0.390098 9.78779 5.88681 0 -1.56039 -27.413z"/>
   <path id="_12345678910111213141516171819" class="fil3 str1" d="M145.385 7.17775c0,-1.87958 -1.31211,-3.19169 -3.19169,-3.19169 -1.84402,0 -3.19169,1.31211 -3.19169,3.19169 0,1.80857 1.31211,3.15623 3.19169,3.15623 1.80867,0 3.19169,-1.27676 3.19169,-3.15623zm-0.0709081 5.42581l-6.24156 0 0 19.9658 6.24156 0 0 -19.9658z"/>
   <path id="_1234567891011121314151617181920" class="fil3 str1" d="M161.733 12.6035l-0.283735 2.16331 -0.0709081 0c-0.922011,-1.59584 -2.4824,-2.55341 -4.61026,-2.55341 -4.46834,0 -8.08558,4.07835 -8.08558,10.4972 0,5.24854 2.73068,9.68143 7.51822,9.68143 1.84413,0 3.51088,-0.780195 4.5038,-2.19867l0.0709081 0 0 1.09928c0,3.16219 -1.66675,4.79349 -4.39744,4.79349 -1.98594,0 -3.79451,-0.567471 -4.9648,-1.17029l-1.13484 4.75208c1.66675,0.815649 3.97188,1.2412 6.31247,1.2412 9.18497,0 10.3553,-5.92237 10.3553,-10.9286l0 -11.2064c0,-2.73068 0.106362,-4.61026 0.17727,-6.17065l-5.39035 0zm-1.02848 11.703c0,2.51786 -1.2412,3.40441 -2.58876,3.40441 -1.95049,0 -3.15623,-1.98594 -3.15623,-5.10672 0,-3.2626 1.27665,-5.46126 3.22714,-5.46126 1.31211,0 2.51786,1.06383 2.51786,3.29805l0 3.86552z"/>
   <path id="_123456789101112131415161718192021" class="fil3 str1" d="M186.913 20.8311c0,-4.43289 -1.6313,-8.6176 -8.2275,-8.6176 -3.43987,0 -6.02873,0.993022 -7.30539,1.70231l1.13484 4.04279c1.27665,-0.780195 3.04977,-1.34767 4.92935,-1.34767 2.51786,0 3.19169,1.09938 3.19169,2.62432 -5.88692,0.0354541 -10.6035,2.30513 -10.6035,7.58912 0,3.36906 2.37604,6.14106 5.99338,6.14106 2.05685,0 3.93633,-0.715145 5.14207,-2.31099l0.106465 0 0.354643 1.91493 5.60318 0c-0.248281,-1.20575 -0.319189,-2.94341 -0.319189,-4.71652l0 -7.02176zm-6.06419 4.8939c0,1.87958 -1.41857,2.80159 -2.69523,2.80159 -1.09938,0 -2.0923,-0.709184 -2.0923,-2.34059 0,-2.30503 2.19867,-3.04977 4.78753,-3.04977l0 2.58876z"/>
   <path id="_12345678910111213141516171819202122" class="fil3 str1" d="M194.643 32.9653c2.16321,0 3.61724,-1.56625 3.61724,-3.87138 0,-2.34059 -1.52494,-3.86552 -3.61724,-3.86552 -2.0214,0 -3.61724,1.6313 -3.61724,3.86552 0,2.23412 1.45403,3.87138 3.61724,3.87138z"/>
   <path id="_1234567891011121314151617181920212223" class="fil3 str1" d="M214.432 27.4981c-0.780195,0.319189 -1.70231,0.49646 -2.80159,0.49646 -2.65977,0 -4.64572,-1.95049 -4.64572,-5.42591 -0.0354541,-3.22714 1.77311,-5.42581 4.61026,-5.42581 1.2412,0 2.0923,0.248178 2.73058,0.461006l0.88666 -4.71662c-0.88666,-0.319189 -2.37604,-0.638379 -3.93643,-0.638379 -6.70257,0 -10.6035,4.53935 -10.6035,10.5681 0,6.38338 3.79461,10.1129 9.75244,10.1129 1.95038,0 3.7236,-0.360604 4.57471,-0.750599l-0.567368 -4.68117z"/>
   <path id="_123456789101112131415161718192021222324" class="fil3 str1" d="M226.525 12.2135c-5.49682,0 -9.53961,3.79461 -9.53961,10.4972 0,6.41883 3.79451,10.2548 9.32678,10.2548 4.36198,0 9.36234,-2.73654 9.36234,-10.503 0,-5.99328 -3.43997,-10.2489 -9.14951,-10.2489zm2.83705 10.3553c0,3.19169 -0.957568,5.85146 -2.97896,5.85146 -2.12776,0 -3.08522,-2.51786 -3.08522,-5.85146 0,-2.76614 0.744638,-5.81591 3.08522,-5.81591 2.12786,0 2.97896,2.8725 2.97896,5.81591z"/>
   <path id="_12345678910111213141516171819202122232425" class="fil3 str1" d="M267.058 20.441c0,-5.31945 -2.19867,-8.2275 -6.09964,-8.2275 -3.08533,0 -4.8939,1.91503 -5.67409,3.04987l-0.0709081 0c-0.780195,-1.87958 -2.55341,-3.04987 -5.00036,-3.04987 -2.83705,0 -4.57471,1.6313 -5.49682,2.8726l-0.106362 0 -0.283735 -2.4825 -5.31945 0c0.0709081,1.87958 0.141816,4.00734 0.141816,6.38338l0 13.5824 6.1352 0 0 -11.9866c0,-2.55331 1.59584,-3.29805 2.51786,-3.29805 1.73766,0 2.23422,1.70221 2.23422,3.65269l0 11.6319 6.1351 0 0 -12.022c0,-2.0214 1.02848,-3.2626 2.4824,-3.2626 1.70231,0 2.26968,1.6313 2.26968,4.14926l0 11.1354 6.1351 0 0 -12.1284z"/>
  </g>
  <path class="fil4" d="M267.891 4.76605c0,2.76922 1.99704,4.76842 4.63308,4.76842 2.63593,0 4.63297,-1.9992 4.63297,-4.76842 0,-2.76912 -1.99704,-4.76616 -4.63297,-4.76616 -2.63604,0 -4.63308,1.99704 -4.63308,4.76616zm0.958596 0c0,-2.22333 1.57098,-3.83418 3.67448,-3.83418 2.1034,0 3.67438,1.61085 3.67438,3.83418 0,2.22333 -1.57098,3.83428 -3.67438,3.83428 -2.10351,0 -3.67448,-1.61095 -3.67448,-3.83428zm5.37854 2.84907c-0.106465,-0.239649 -0.119824,-0.479298 -0.119824,-0.785436l0 -0.612482c0,-0.678971 -0.173057,-1.14491 -0.692331,-1.35794l0 -0.0266162c0.479298,-0.213033 0.692331,-0.625739 0.692331,-1.30471l0 -0.119824c0,-0.998469 -0.465938,-1.49102 -1.50438,-1.49102l-1.54436 0 0 5.69803 1.01183 0 0 -2.23659 0.346114 0c0.465938,0 0.678971,0.21293 0.678971,0.825412l0 0.612379c0,0.53253 0.0266162,0.625739 0.0932082,0.798796l1.03844 0zm-1.67744 -4.76616c0.38609,0 0.545787,0.213033 0.545787,0.678971l0 0.239649c0,0.519274 -0.239649,0.678971 -0.612379,0.678971l-0.412706 0 0 -1.59759 0.479298 0z"/>
 </g>
</svg>
